<?xml version="1.0" standalone="no"?>
<!DOCTYPE svg PUBLIC "-//W3C//DTD SVG 20010904//EN"
 "http://www.w3.org/TR/2001/REC-SVG-20010904/DTD/svg10.dtd">
<svg version="1.0" xmlns="http://www.w3.org/2000/svg"
 width="1536.000000pt" height="1024.000000pt" viewBox="0 0 1536.000000 1024.000000"
 preserveAspectRatio="xMidYMid meet">

<g transform="translate(0.000000,1024.000000) scale(0.100000,-0.100000)"
fill="#000000" stroke="none">
<path d="M3556 6774 c-104 -19 -267 -74 -374 -126 -434 -212 -763 -632 -880
-1123 -24 -100 -27 -128 -26 -305 0 -184 2 -200 28 -285 75 -246 190 -412 394
-568 99 -76 274 -200 349 -250 131 -84 414 -140 600 -117 191 23 359 79 525
172 269 151 519 410 676 698 139 256 211 579 183 829 -37 345 -162 535 -534
813 -216 161 -362 235 -517 264 -97 17 -323 16 -424 -2z m346 -178 c212 -41
398 -169 507 -350 54 -90 99 -235 110 -356 34 -363 -111 -744 -399 -1043 -125
-131 -237 -214 -395 -292 -189 -94 -288 -118 -485 -119 -124 -1 -168 3 -220
18 -273 79 -466 276 -542 554 -29 106 -31 357 -4 482 106 487 476 906 935
1060 171 57 347 74 493 46z m844 -557 c301 -464 -24 -1347 -627 -1702 -102
-60 -228 -112 -334 -139 -131 -32 -320 -31 -428 1 -43 13 -80 28 -83 33 -3 4
21 8 53 8 119 1 303 55 473 140 454 228 798 678 896 1175 32 162 21 449 -22
560 -15 38 26 -5 72 -76z"/>
<path d="M3515 6393 c-298 -63 -597 -306 -753 -611 -149 -290 -161 -582 -36
-822 70 -135 172 -221 324 -274 76 -26 98 -29 205 -29 148 0 247 23 391 93
295 143 523 414 620 735 39 130 46 344 15 466 -59 237 -208 393 -422 444 -81
19 -251 18 -344 -2z m165 -282 c0 -10 -7 -38 -15 -61 -20 -58 -20 -57 25 -65
48 -8 93 -38 134 -88 26 -33 31 -47 31 -95 l0 -57 -65 -11 c-107 -19 -114 -18
-132 19 -23 48 -74 70 -153 65 -74 -5 -127 -38 -144 -91 -25 -75 23 -113 180
-143 192 -36 259 -103 246 -243 -12 -137 -145 -276 -311 -326 -37 -11 -41 -17
-60 -73 -12 -33 -25 -64 -29 -69 -12 -11 -141 -3 -148 9 -4 6 2 36 12 66 11
30 18 56 17 57 -2 0 -29 9 -61 19 -100 30 -165 111 -169 210 -3 57 7 65 85 68
31 1 67 2 79 2 15 1 28 -11 43 -39 29 -51 70 -75 140 -82 102 -11 191 45 202
125 5 35 2 44 -21 65 -27 26 -57 35 -194 63 -157 32 -219 99 -210 224 4 48 13
82 33 119 50 92 170 185 262 205 29 7 33 13 53 77 l21 69 74 0 c67 0 75 -2 75
-19z"/>
<path d="M10194 5845 c-168 -36 -290 -154 -351 -339 -24 -74 -27 -95 -27 -231
1 -135 3 -158 28 -232 70 -215 229 -334 446 -336 148 -1 265 42 354 130 49 48
101 144 112 206 6 36 5 37 -23 37 -17 0 -63 3 -104 6 l-74 7 -14 -38 c-46
-129 -208 -191 -337 -131 -236 110 -239 584 -4 706 55 28 120 34 182 16 70
-20 120 -64 154 -132 l27 -55 96 7 c53 4 98 8 100 10 2 2 -2 25 -8 51 -63 247
-289 376 -557 318z"/>
<path d="M11713 5844 c-46 -23 -69 -76 -54 -125 16 -52 53 -79 108 -79 80 0
123 40 123 115 0 79 -99 129 -177 89z"/>
<path d="M5670 5285 l0 -565 365 0 365 0 0 95 0 95 -255 0 -255 0 0 135 0 135
220 0 220 0 0 95 0 95 -220 0 -220 0 0 145 0 145 253 0 252 0 -3 95 -3 95
-360 0 -359 0 0 -565z"/>
<path d="M7080 5655 c0 -107 -3 -195 -6 -195 -3 0 -21 12 -40 26 -49 38 -99
53 -175 54 -171 1 -300 -104 -345 -280 -20 -80 -15 -252 10 -320 36 -99 120
-186 209 -217 52 -19 170 -21 220 -4 21 7 58 28 82 47 l45 34 0 -40 0 -40 100
0 100 0 0 565 0 565 -100 0 -100 0 0 -195z m-100 -315 c21 -11 47 -32 59 -48
49 -69 54 -223 10 -309 -55 -107 -209 -126 -290 -37 -37 41 -53 97 -52 184 1
111 38 185 108 216 45 20 120 17 165 -6z"/>
<path d="M8513 5525 c-106 -32 -195 -114 -235 -214 -19 -48 -23 -74 -23 -186
0 -114 3 -137 24 -190 29 -72 113 -160 183 -193 187 -87 421 -3 487 174 12 30
21 59 21 63 0 9 -21 12 -152 27 -51 6 -58 4 -58 -11 0 -35 -40 -83 -82 -100
-83 -33 -165 1 -211 89 -32 61 -32 212 1 278 32 64 72 91 141 96 69 4 113 -20
138 -75 10 -21 18 -39 19 -41 1 -2 45 2 98 9 l97 13 -7 31 c-16 76 -86 169
-155 206 -71 37 -207 49 -286 24z"/>
<path d="M9268 5526 c-94 -25 -164 -94 -193 -189 l-14 -45 63 -11 c102 -18
119 -15 136 22 8 17 31 42 50 55 29 19 45 23 87 20 33 -3 61 -12 74 -24 27
-24 49 -74 49 -112 l0 -29 -127 -6 c-137 -5 -190 -19 -256 -64 -75 -52 -117
-163 -97 -258 31 -151 214 -224 377 -150 34 15 70 36 79 46 26 28 34 23 34
-21 l0 -40 91 0 90 0 -3 303 -3 303 -30 59 c-36 70 -93 118 -167 140 -62 18
-175 19 -240 1z m252 -491 c0 -60 -19 -103 -63 -142 -86 -76 -227 -43 -227 52
0 52 23 89 67 108 52 22 67 24 151 26 l72 1 0 -45z"/>
<path d="M11095 5527 c-152 -51 -242 -162 -265 -330 -28 -196 58 -384 207
-454 191 -89 405 -18 496 164 38 75 50 144 44 247 -9 167 -75 281 -200 345
-59 31 -79 35 -155 38 -53 2 -102 -2 -127 -10z m209 -191 c57 -43 71 -86 71
-211 0 -95 -3 -116 -22 -152 -72 -135 -254 -120 -310 25 -22 56 -24 188 -4
245 16 48 57 96 96 114 45 20 129 10 169 -21z"/>
<path d="M12335 5528 c-40 -15 -85 -45 -111 -75 l-21 -25 -7 46 -7 46 -85 0
-84 0 0 -400 0 -400 94 0 95 0 3 258 c3 245 4 259 26 299 28 53 60 75 120 81
63 6 115 -17 139 -60 16 -29 18 -65 21 -305 l3 -273 95 0 94 0 0 293 c0 333
-6 370 -67 438 -55 61 -104 82 -198 86 -44 1 -93 -2 -110 -9z"/>
<path d="M12992 5521 c-102 -35 -161 -119 -162 -226 0 -134 67 -196 257 -241
132 -30 163 -51 163 -107 0 -100 -182 -119 -240 -25 -11 18 -21 37 -23 42 -2
5 -41 6 -90 1 -86 -7 -87 -7 -87 -33 1 -79 93 -180 189 -209 31 -9 90 -16 132
-16 188 1 309 100 309 254 0 71 -19 117 -65 158 -45 39 -76 52 -195 81 -115
28 -148 43 -160 76 -31 80 61 139 153 100 29 -12 42 -26 55 -56 l17 -41 90 6
c50 4 92 9 93 10 2 2 -3 29 -12 59 -22 75 -81 136 -159 165 -74 27 -190 28
-265 2z"/>
<path d="M7422 5218 c3 -294 4 -305 27 -355 28 -62 92 -125 147 -144 21 -7 71
-13 109 -13 77 0 127 20 190 75 l35 31 0 -30 c0 -59 4 -62 101 -62 l89 0 0
400 0 400 -99 0 -100 0 -3 -262 c-3 -242 -5 -266 -23 -297 -32 -55 -69 -76
-130 -76 -39 0 -61 6 -82 21 -55 41 -58 56 -61 347 l-3 267 -100 0 -100 0 3
-302z"/>
<path d="M11670 5120 l0 -400 100 0 100 0 0 400 0 400 -100 0 -100 0 0 -400z"/>
<path d="M4030 3899 c-326 -64 -1226 -226 -1385 -250 -92 -13 -157 -28 -167
-37 -23 -20 -23 -54 1 -83 l19 -23 163 18 c90 9 225 26 299 37 74 10 270 37
435 59 252 34 782 116 877 136 74 15 107 120 52 163 -35 28 -62 26 -294 -20z"/>
<path d="M3467 3455 c-326 -44 -564 -82 -588 -95 -24 -13 -25 -52 -1 -72 15
-13 37 -13 177 -2 88 6 250 17 360 23 349 19 356 20 387 52 32 31 36 72 12
107 -20 29 -39 28 -347 -13z"/>
</g>
</svg>
