<svg xmlns="http://www.w3.org/2000/svg" width="1254" height="836" viewBox="0 0 1254 836">
<g>
<path d="M 278.50 508.99 C270.39,507.99 259.62,504.98 253.66,502.04 C246.38,498.46 219.99,479.01 211.86,471.25 C200.08,459.99 193.83,449.21 188.47,430.86 C187.61,427.93 187.02,425.63 186.62,423.46 L 186.81 422.16 C187.00,420.88 186.90,419.57 186.58,419.25 C186.37,419.04 186.19,418.92 186.03,418.89 C185.88,416.77 185.85,414.45 185.90,411.50 C186.47,378.05 199.57,346.44 223.22,321.44 C253.59,289.37 298.81,274.87 334.00,285.92 C342.98,288.74 354.73,295.62 369.23,306.54 C394.74,325.77 403.12,337.04 409.02,360.06 C411.08,368.06 411.50,380.06 410.41,391.38 C410.29,391.37 410.15,391.41 410.00,391.50 C409.45,391.84 409.00,392.79 409.00,393.62 C409.00,394.44 409.45,394.84 410.00,394.50 C410.03,394.48 410.06,394.46 410.08,394.44 C410.01,395.04 409.93,395.64 409.85,396.24 C409.72,396.00 409.47,396.27 409.00,397.00 C408.47,397.83 408.03,399.40 408.03,400.50 C408.03,402.16 408.20,402.24 409.00,401.00 C409.04,400.93 409.09,400.86 409.13,400.78 C408.71,403.06 408.23,405.24 407.68,407.29 C400.89,432.47 389.83,451.93 371.58,470.84 C365.10,477.56 352.14,488.35 346.00,492.14 C324.19,505.62 300.06,511.64 278.50,508.99 ZM 289.68 471.14 C307.26,465.32 318.99,458.02 333.62,443.79 C353.66,424.29 366.75,399.89 368.56,378.71 C368.64,378.67 368.74,378.60 368.84,378.50 C370.27,377.14 371.33,360.22 370.21,356.50 C369.74,354.91 369.48,355.20 369.37,357.97 C369.16,346.34 367.25,339.16 362.86,330.10 C352.21,308.09 327.62,294.45 302.05,296.38 C288.66,297.39 277.79,300.48 264.50,307.05 C233.90,322.18 212.27,349.05 202.83,383.66 C199.91,394.33 199.67,418.26 202.37,428.00 C207.29,445.76 219.80,461.04 236.00,469.08 C245.13,473.61 253.33,475.01 268.00,474.57 C278.60,474.24 281.90,473.72 289.68,471.14 ZM 552.24 451.08 C547.44,449.85 541.39,445.52 538.05,440.91 C533.44,434.54 531.59,427.77 531.67,417.50 C531.76,405.84 534.42,398.49 540.90,392.01 C546.56,386.35 551.92,384.63 562.28,385.15 C568.24,385.45 570.47,386.04 573.73,388.20 C575.96,389.68 578.06,390.61 578.39,390.28 C578.73,389.94 579.00,382.77 579.00,374.33 L 579.00 359.00 L 594.02 359.00 L 593.76 404.75 L 593.50 450.50 L 586.50 450.50 C579.61,450.50 579.50,450.46 579.18,447.75 C579.01,446.24 578.48,445.00 578.00,445.00 C577.52,445.00 574.90,446.39 572.17,448.09 C566.79,451.43 558.49,452.68 552.24,451.08 ZM 464.00 358.97 L 492.75 359.23 L 521.50 359.50 L 521.50 373.50 L 480.94 374.04 L 481.50 397.50 L 517.09 398.05 L 516.50 412.50 L 481.00 413.05 L 481.00 435.00 L 484.25 435.06 C500.74,435.39 519.75,436.15 520.80,436.52 C521.73,436.84 522.01,438.88 521.80,443.74 L 521.50 450.50 L 492.75 450.77 L 464.00 451.03 L 464.00 358.97 ZM 906.79 450.60 C893.49,447.02 884.82,434.22 884.82,418.16 C884.82,403.66 890.28,393.08 900.50,387.73 C906.77,384.46 920.30,384.08 927.45,386.98 C938.92,391.64 945.00,402.38 945.00,418.01 C945.00,430.18 942.54,436.29 934.73,443.56 C926.29,451.41 917.78,453.56 906.79,450.60 ZM 303.40 494.77 C303.76,494.58 304.37,494.37 305.10,494.18 C303.74,494.78 303.98,494.87 306.19,494.93 C307.67,494.97 309.16,494.55 309.50,494.00 C309.67,493.73 309.70,493.52 309.61,493.37 C309.68,493.36 309.75,493.36 309.82,493.35 C315.51,492.82 327.46,488.10 336.21,482.93 C350.68,474.37 366.42,459.06 376.75,443.50 C385.13,430.87 394.00,409.85 394.00,402.62 C394.00,402.24 394.03,401.79 394.09,401.30 C394.14,403.29 394.25,403.25 395.00,401.50 C395.47,400.40 395.88,398.60 395.91,397.50 C395.96,395.94 395.82,395.78 395.13,396.80 C395.30,396.29 395.48,395.81 395.67,395.37 C396.92,392.47 397.34,388.37 397.38,379.00 C397.44,361.54 394.64,351.37 386.70,340.25 C382.49,334.36 380.73,334.59 382.76,340.75 C383.92,344.26 384.35,349.94 384.42,362.50 C384.49,377.41 384.21,380.61 382.11,388.50 C373.15,422.28 352.43,451.25 323.12,470.96 C309.42,480.17 287.55,488.56 274.18,489.73 C268.95,490.19 268.08,490.51 269.18,491.60 C272.66,495.07 298.30,497.44 303.40,494.77 ZM 832.92 451.05 C824.38,449.49 815.94,444.23 811.05,437.42 C801.13,423.60 799.07,397.60 806.59,381.07 C813.34,366.22 824.81,359.12 842.39,358.91 C856.19,358.75 866.47,363.76 872.81,373.75 C876.38,379.38 878.74,386.66 877.42,387.98 C876.91,388.48 873.53,389.20 869.90,389.57 L 863.30 390.25 L 861.05 385.60 C857.12,377.49 848.44,373.11 839.08,374.51 C833.00,375.42 829.87,377.17 825.83,381.89 C819.22,389.61 816.86,401.21 819.41,413.53 C819.44,413.66 819.47,413.80 819.50,413.93 C819.35,413.76 819.18,413.61 819.00,413.50 C818.45,413.16 818.00,413.58 818.00,414.44 C818.00,415.30 818.45,416.00 819.00,416.00 C819.37,416.00 819.69,415.81 819.86,415.53 C823.96,432.13 834.51,439.76 848.32,435.93 C853.13,434.59 859.56,428.86 861.14,424.50 C861.98,422.17 863.12,421.02 864.92,420.67 C866.34,420.39 867.65,420.58 867.83,421.08 C868.02,421.59 870.17,422.00 872.61,422.00 C878.15,422.00 878.86,423.45 876.44,429.78 C873.84,436.59 865.81,444.71 858.24,448.17 C851.31,451.34 840.93,452.52 832.92,451.05 ZM 752.26 451.08 C748.90,450.23 744.43,447.14 741.62,443.93 C741.70,443.65 741.26,442.46 740.53,441.05 C739.69,439.43 738.99,435.94 738.97,433.30 C738.95,430.07 738.79,429.13 738.23,429.79 C738.62,428.55 739.15,427.22 739.83,425.72 C744.46,415.51 751.42,412.00 767.04,412.00 C777.18,412.00 778.60,411.10 777.66,405.30 C776.82,400.13 774.12,397.81 768.25,397.25 C762.22,396.67 757.70,398.74 755.44,403.13 C754.03,405.83 753.46,406.14 750.79,405.61 C749.12,405.27 746.79,404.99 745.62,404.98 C741.23,404.95 740.50,403.60 742.32,398.84 C744.25,393.80 747.73,389.75 752.28,387.26 C756.78,384.80 776.09,384.73 780.50,387.15 C785.74,390.03 788.66,393.49 790.88,399.41 C791.84,401.98 792.37,403.76 792.64,407.23 C792.62,407.11 792.60,407.07 792.58,407.09 C792.35,407.32 791.98,417.27 791.76,429.20 C791.54,441.13 791.73,450.67 792.18,450.39 C792.30,450.31 792.42,449.50 792.53,448.11 L 792.50 450.50 L 787.57 450.81 C783.01,451.10 780.49,450.94 779.19,449.99 C780.17,449.90 780.11,449.07 779.00,446.50 C778.24,444.73 778.13,444.81 778.07,447.25 C778.06,447.55 778.07,447.84 778.10,448.11 C778.03,447.73 778.00,447.32 778.00,446.86 C778.00,443.83 777.95,443.79 775.75,445.38 C768.14,450.85 759.54,452.94 752.26,451.08 ZM 621.79 451.01 C617.30,449.66 613.16,446.13 610.25,441.18 L 607.50 436.50 L 607.19 411.25 L 606.88 386.00 L 622.00 386.00 L 622.00 405.88 C622.00,416.81 622.29,427.18 622.64,428.94 C622.99,430.69 624.60,433.44 626.21,435.06 C628.65,437.49 629.98,438.00 633.94,438.00 C639.39,438.00 643.00,435.75 645.74,430.66 C647.33,427.72 647.87,417.29 647.99,387.75 C648.00,386.24 649.03,386.00 655.51,386.00 L 663.03 386.00 L 662.50 450.50 L 655.75 450.80 C650.20,451.04 649.00,450.82 649.00,449.55 C649.00,448.70 648.58,448.00 648.07,448.00 C647.56,448.00 647.00,447.03 646.82,445.85 C646.50,443.72 646.46,443.73 643.34,446.36 C637.24,451.50 629.19,453.24 621.79,451.01 ZM 982.71 450.37 C982.32,449.99 982.00,435.34 982.00,417.83 L 982.00 386.00 L 988.42 386.00 C994.74,386.00 994.85,386.05 995.50,389.00 C995.86,390.65 996.34,392.00 996.55,392.00 C996.77,392.00 999.01,390.54 1001.55,388.75 C1005.60,385.89 1007.07,385.47 1013.88,385.16 C1026.61,384.58 1033.83,389.37 1036.97,400.50 C1037.05,400.79 1037.13,401.18 1037.20,401.65 C1037.14,401.59 1037.07,401.54 1037.00,401.50 C1036.45,401.16 1036.00,401.58 1036.00,402.44 C1036.00,403.30 1036.45,404.00 1037.00,404.00 C1037.16,404.00 1037.32,403.96 1037.45,403.90 C1037.82,408.39 1037.94,416.43 1037.80,427.50 L 1037.50 450.50 L 1030.25 450.79 L 1023.00 451.09 L 1022.99 430.29 C1022.99,418.79 1022.52,407.80 1021.93,405.70 C1019.33,396.32 1004.16,395.30 999.32,404.17 C997.77,407.00 997.42,410.74 997.00,429.00 L 996.50 450.50 L 989.96 450.79 C986.36,450.95 983.10,450.76 982.71,450.37 ZM 1064.22 451.00 C1055.86,449.23 1047.06,440.71 1047.02,434.33 C1047.00,432.39 1047.70,432.08 1053.70,431.44 C1059.01,430.87 1060.50,431.01 1060.86,432.11 C1061.12,432.88 1062.78,434.96 1064.56,436.75 C1067.29,439.49 1068.53,440.00 1072.48,440.00 C1076.31,440.00 1077.68,439.47 1080.08,437.08 C1086.24,430.92 1083.16,426.84 1069.88,423.56 C1055.79,420.08 1052.60,418.08 1049.54,410.75 C1046.25,402.87 1049.06,392.96 1055.87,388.48 C1062.99,383.80 1077.85,383.28 1085.88,387.44 C1091.10,390.14 1096.96,399.05 1095.69,402.36 C1095.37,403.19 1092.84,404.04 1089.34,404.48 C1084.39,405.10 1083.38,404.95 1082.52,403.46 C1079.61,398.46 1077.34,396.79 1072.74,396.27 C1066.17,395.53 1063.00,397.68 1063.00,402.87 C1063.00,408.09 1064.75,409.33 1076.46,412.43 C1088.08,415.50 1091.66,417.36 1094.75,421.95 C1098.88,428.09 1097.14,440.05 1091.36,445.13 C1085.33,450.44 1073.58,452.98 1064.22,451.00 ZM 697.90 451.12 C693.40,450.17 686.35,446.07 682.81,442.34 C681.33,440.78 678.86,436.80 677.33,433.50 C674.88,428.19 674.56,426.34 674.57,417.50 C674.58,409.31 674.99,406.61 676.82,402.56 C680.31,394.85 683.47,391.42 690.15,388.09 C695.45,385.43 697.41,385.00 704.08,385.00 C716.25,385.00 724.71,389.59 728.89,398.48 C732.38,405.91 732.31,405.99 720.91,407.55 C716.46,408.16 716.28,408.08 714.99,404.97 C712.24,398.33 703.30,396.00 696.90,400.26 C687.15,406.74 686.11,425.34 694.99,434.23 C698.21,437.44 699.41,438.00 703.13,438.00 C708.49,437.99 713.28,435.25 715.10,431.14 C716.44,428.11 716.47,428.10 723.37,428.50 C727.18,428.72 730.75,429.35 731.30,429.90 C732.86,431.46 727.42,441.50 723.20,444.84 C716.18,450.40 706.22,452.87 697.90,451.12 ZM 203.48 547.98 C202.58,546.98 201.99,545.13 202.17,543.87 C202.55,541.23 203.48,540.93 219.00,538.53 C224.77,537.63 234.45,536.02 240.50,534.95 C290.40,526.10 307.76,522.82 309.33,521.92 C309.68,521.73 310.26,521.52 311.00,521.33 C309.71,521.78 310.16,521.82 312.69,521.90 C314.45,521.96 316.16,521.55 316.50,521.00 C316.65,520.76 316.69,520.57 316.64,520.43 C321.43,520.02 328.55,518.82 343.68,515.88 C349.10,514.82 350.17,514.88 352.43,516.36 C355.88,518.62 355.97,523.74 352.61,526.90 C350.70,528.69 347.35,529.61 335.86,531.47 C329.11,532.57 322.59,533.70 319.98,534.21 C320.15,534.15 320.32,534.08 320.50,534.00 C322.29,533.23 322.21,533.13 319.81,533.07 C318.33,533.03 316.84,533.45 316.50,534.00 C316.21,534.46 316.33,534.75 316.75,534.85 C314.12,535.30 309.80,535.95 305.50,536.54 C299.45,537.36 286.40,539.16 276.50,540.53 C266.60,541.90 253.10,543.70 246.50,544.52 C239.90,545.35 229.77,546.68 224.00,547.47 C205.87,549.96 205.29,549.98 203.48,547.98 ZM 568.80 436.59 C577.41,432.09 580.93,421.57 577.88,409.44 C575.07,398.28 560.56,394.24 552.44,402.36 C548.17,406.63 546.38,414.71 547.86,423.09 C549.11,430.19 551.19,433.29 556.50,435.98 C561.20,438.35 565.06,438.54 568.80,436.59 ZM 922.15 436.38 C926.95,433.97 929.22,428.81 929.52,419.68 C929.86,409.37 928.56,404.70 924.29,400.95 C921.39,398.40 920.13,398.00 915.10,398.00 C908.15,398.00 904.73,400.18 901.90,406.42 C899.77,411.11 899.39,421.22 901.13,427.03 C904.10,436.96 913.07,440.95 922.15,436.38 ZM 954.32 449.62 C953.87,448.81 953.63,434.16 953.78,417.07 L 954.06 386.00 L 969.03 386.00 L 968.50 450.50 L 961.82 450.79 C956.76,451.02 954.95,450.73 954.32,449.62 ZM 235.57 567.43 C232.93,564.79 234.00,562.54 238.16,561.08 C238.10,561.11 238.05,561.14 238.00,561.17 C237.04,561.76 238.12,561.85 241.00,561.44 C243.48,561.08 245.95,560.36 246.50,559.82 C246.62,559.70 246.66,559.61 246.62,559.53 C246.97,559.51 247.32,559.48 247.68,559.46 C251.91,559.19 261.02,558.10 267.93,557.05 C288.12,553.97 307.89,551.83 309.97,552.49 C312.45,553.28 313.31,556.05 312.07,559.31 C310.23,564.16 309.52,564.28 269.00,566.53 C253.88,567.37 240.52,568.27 239.32,568.53 C238.11,568.79 236.45,568.31 235.57,567.43 ZM 768.80 439.59 C772.26,437.78 776.59,433.13 777.44,430.29 C777.81,429.08 777.81,426.49 777.44,424.54 C776.79,421.05 776.70,421.00 771.83,421.00 C766.03,421.00 759.27,422.56 756.64,424.51 C754.26,426.26 753.08,431.68 754.28,435.27 C755.97,440.32 763.26,442.48 768.80,439.59 ZM 956.41 374.33 C956.16,374.20 955.91,374.07 955.68,373.92 C955.96,373.91 955.58,373.24 954.56,371.78 C953.70,370.56 953.00,368.22 953.00,366.58 C953.00,364.50 952.75,363.96 952.03,364.58 C952.18,364.21 952.36,363.85 952.59,363.50 C954.83,360.08 957.05,359.00 961.82,359.00 C966.67,359.00 969.78,361.38 970.62,365.73 C971.15,368.50 970.75,369.45 967.72,372.48 C963.86,376.34 961.29,376.76 956.41,374.33 ZM 739.31 440.56 C738.17,438.46 737.57,436.61 737.49,434.64 C737.74,436.47 738.37,438.55 739.31,440.56 ZM 952.64 370.80 C952.11,369.86 951.76,368.85 951.63,367.84 C951.84,368.81 952.20,369.86 952.64,370.80 Z" fill="rgba(10,47,97,1)"/>
<path d="M 791.76 429.20 C791.98,417.27 792.35,407.32 792.58,407.09 C792.81,406.86 793.00,416.39 793.00,428.27 C793.00,440.16 792.63,450.11 792.18,450.39 C791.73,450.67 791.54,441.13 791.76,429.20 ZM 368.53 376.00 C368.94,374.08 369.28,368.23 369.29,363.00 C369.31,355.80 369.53,354.23 370.21,356.50 C371.33,360.22 370.27,377.14 368.84,378.50 C368.11,379.20 368.01,378.44 368.53,376.00 ZM 739.65 441.25 C737.50,437.05 736.74,432.28 737.90,430.29 C738.73,428.87 738.95,429.49 738.97,433.30 C738.99,435.94 739.69,439.43 740.53,441.05 C741.36,442.67 741.83,444.00 741.55,444.00 C741.28,444.00 740.42,442.76 739.65,441.25 ZM 954.44 373.23 C952.39,371.81 950.62,365.98 951.86,364.74 C952.71,363.89 953.00,364.34 953.00,366.58 C953.00,368.22 953.70,370.56 954.56,371.78 C956.20,374.12 956.17,374.44 954.44,373.23 ZM 238.00 561.17 C240.22,559.82 247.73,558.62 246.50,559.82 C245.95,560.36 243.48,561.08 241.00,561.44 C238.12,561.85 237.04,561.76 238.00,561.17 ZM 394.09 401.00 C394.06,399.62 394.47,397.83 395.00,397.00 C395.80,395.76 395.96,395.85 395.91,397.50 C395.88,398.60 395.47,400.40 395.00,401.50 C394.21,403.33 394.14,403.29 394.09,401.00 ZM 312.00 521.00 C315.59,519.85 317.21,519.85 316.50,521.00 C316.16,521.55 314.45,521.96 312.69,521.90 C309.64,521.81 309.61,521.76 312.00,521.00 ZM 408.03 400.50 C408.03,399.40 408.47,397.83 409.00,397.00 C409.80,395.76 409.97,395.84 409.97,397.50 C409.97,398.60 409.53,400.17 409.00,401.00 C408.20,402.24 408.03,402.16 408.03,400.50 ZM 305.50 494.00 C308.28,492.81 310.24,492.81 309.50,494.00 C309.16,494.55 307.67,494.97 306.19,494.93 C303.79,494.87 303.71,494.77 305.50,494.00 ZM 316.50 534.00 C316.84,533.45 318.33,533.03 319.81,533.07 C322.21,533.13 322.29,533.23 320.50,534.00 C317.72,535.19 315.76,535.19 316.50,534.00 ZM 778.07 447.25 C778.13,444.81 778.24,444.73 779.00,446.50 C780.17,449.23 780.17,450.00 779.00,450.00 C778.45,450.00 778.03,448.76 778.07,447.25 ZM 185.77 422.04 C185.08,419.58 185.49,418.16 186.58,419.25 C186.90,419.57 187.00,420.88 186.81,422.16 L 186.46 424.50 ZM 409.00 393.62 C409.00,392.79 409.45,391.84 410.00,391.50 C410.55,391.16 411.00,391.56 411.00,392.38 C411.00,393.21 410.55,394.16 410.00,394.50 C409.45,394.84 409.00,394.44 409.00,393.62 ZM 1036.00 402.44 C1036.00,401.58 1036.45,401.16 1037.00,401.50 C1037.55,401.84 1038.00,402.54 1038.00,403.06 C1038.00,403.58 1037.55,404.00 1037.00,404.00 C1036.45,404.00 1036.00,403.30 1036.00,402.44 ZM 818.00 414.44 C818.00,413.58 818.45,413.16 819.00,413.50 C819.55,413.84 820.00,414.54 820.00,415.06 C820.00,415.58 819.55,416.00 819.00,416.00 C818.45,416.00 818.00,415.30 818.00,414.44 Z" fill="rgba(5,19,57,1)"/>
<path d="M 250.13 453.44 C241.37,450.46 235.84,446.84 229.86,440.19 C221.71,431.13 215.98,415.22 216.02,401.79 C216.04,393.89 219.51,378.93 223.40,369.95 C242.01,327.00 290.03,302.30 324.50,317.93 C336.62,323.42 345.15,333.97 348.99,348.20 C350.92,355.33 351.16,358.17 350.73,368.98 C350.17,383.22 348.64,389.71 342.99,401.76 C333.53,421.95 314.69,441.07 296.31,449.13 C279.90,456.33 263.19,457.89 250.13,453.44 ZM 279.36 433.25 C280.40,430.36 281.76,428.00 282.38,428.00 C282.99,428.00 286.29,426.68 289.70,425.06 C302.26,419.12 310.00,408.79 310.00,397.95 C310.00,387.58 303.71,382.17 289.05,379.92 C282.13,378.87 277.54,377.00 275.77,374.52 C274.18,372.32 275.02,367.33 277.34,365.15 C283.93,358.96 295.13,359.94 299.23,367.07 C300.80,369.82 301.15,369.94 305.70,369.33 C314.76,368.10 315.22,367.83 315.50,363.46 C315.98,355.89 310.23,349.00 302.06,347.36 C299.17,346.78 298.93,346.46 299.58,344.11 C299.99,342.67 300.36,340.38 300.41,339.00 C300.50,336.62 300.20,336.49 294.28,336.20 C288.20,335.91 288.05,335.97 287.39,338.70 C286.07,344.22 284.09,346.81 280.27,348.07 C264.29,353.32 253.80,371.15 259.75,382.97 C262.09,387.62 268.42,391.86 274.00,392.52 C280.49,393.28 289.22,395.93 291.25,397.74 C295.17,401.25 291.94,408.88 285.36,411.62 C278.04,414.68 269.36,412.42 265.90,406.55 C263.96,403.27 263.44,403.00 259.03,403.00 C256.40,403.00 252.84,403.28 251.12,403.62 C248.26,404.20 248.00,404.58 248.00,408.16 C248.00,415.98 253.96,423.80 262.14,426.73 L 266.77 428.39 L 265.38 432.34 C263.48,437.72 264.64,438.87 271.79,438.66 L 277.48 438.50 L 279.36 433.25 Z" fill="rgba(120,27,58,1)"/>
</g>
</svg>